#!OML:ASF F:\VICON\USERDATA\INSTALL\rory3\rory3.ASF
:FULLY-SPECIFIED
:DEGREES
589
root 2.58325 9.67396 -5.49954 -17.5408 -4.94861 2.0818
lowerback 29.4294 -0.0106031 0.702298
upperback 12.5189 0.206816 1.88083
thorax -2.11316 0.0431456 1.60166
lowerneck -25.2242 -1.02723 -11.0398
upperneck 13.3059 1.66741 3.87103
head 8.08809 0.619597 3.3112
rclavicle -3.57812e-015 -8.74653e-015
rhumerus -11.3105 20.0205 -82.6
rradius 93.6371
rwrist 28.3401
rhand -31.5393 12.575
rfingers 7.12502
rthumb -4.80392 -17.3506
lclavicle -3.57812e-015 -8.74653e-015
lhumerus -10.2645 -16.0247 89.8773
lradius 84.8201
lwrist -22.4816
lhand -29.7246 17.222
lfingers 7.12502
lthumb -3.05149 47.1799
rfemur -78.4114 -10.9743 21.7096
rtibia 107.347
rfoot -5.58285 3.23007
rtoes 8.91012
lfemur -77.8988 12.9975 -25.1006
ltibia 103.014
lfoot -6.26061 -10.9598
ltoes -4.8304
590
root 2.58289 9.67618 -5.5007 -17.5993 -4.97027 2.07983
lowerback 29.4493 -0.0250308 0.72172
upperback 12.5382 0.193065 1.88214
thorax -2.09972 0.0367037 1.5962
lowerneck -25.265 -0.99235 -10.9974
upperneck 13.3796 1.7088 3.85345
head 8.11704 0.637276 3.30583
rclavicle -1.55052e-014 -5.56597e-015
rhumerus -11.2564 20.0354 -82.6096
rradius 93.5719
rwrist 28.3619
rhand -31.5621 12.6925
rfingers 7.12502
rthumb -4.8259 -17.2325
lclavicle -1.55052e-014 -5.56597e-015
lhumerus -10.2703 -15.9886 89.8511
lradius 84.8003
lwrist -22.4749
lhand -29.8008 17.3522
lfingers 7.12502
lthumb -3.12508 47.309
rfemur -78.3394 -10.9754 21.7132
rtibia 107.362
rfoot -5.59152 3.22374
rtoes 8.94347
lfemur -77.8162 13.0094 -25.0644
ltibia 103.007
lfoot -6.30486 -10.9482
ltoes -5.0401
591
root 2.58215 9.67366 -5.50077 -17.6129 -4.97287 2.02607
lowerback 29.4806 -0.0531987 0.783148
upperback 12.5035 0.176259 1.90939
thorax -2.15245 0.0298649 1.5962
lowerneck -25.1827 -0.960089 -11.0392
upperneck 13.4411 1.74826 3.89869
head 8.12085 0.656348 3.33368
rclavicle 8.74653e-015 2.62396e-014
rhumerus -11.3431 20.0587 -82.6131
rradius 93.5775
rwrist 28.4064
rhand -31.5707 12.7905
rfingers 7.12502
rthumb -4.83424 -17.1343
lclavicle 8.74653e-015 2.62396e-014
lhumerus -10.3884 -15.9371 89.9004
lradius 84.7664
lwrist -22.4842
lhand -29.9277 17.3036
lfingers 7.12502
lthumb -3.24762 47.2586
rfemur -78.3503 -10.9687 21.7816
rtibia 107.382
rfoot -5.60996 3.16114
rtoes 8.87547
lfemur -77.8301 13.0081 -25.0065
ltibia 103.029
lfoot -6.31146 -10.957
ltoes -5.00456
592
root 2.58149 9.67058 -5.50049 -17.5997 -4.94944 1.98209
lowerback 29.4868 -0.102796 0.831449
upperback 12.498 0.126829 1.91963
thorax -2.16013 0.00676622 1.59466
lowerneck -25.2514 -0.904838 -11.0277
upperneck 13.5185 1.82847 3.89592
head 8.1521 0.692369 3.34391
rclavicle 3.97569e-016 0
rhumerus -11.3559 20.102 -82.634
rradius 93.6164
rwrist 28.4112
rhand -31.53 12.8109
rfingers 7.12502
rthumb -4.79495 -17.1148
lclavicle 3.97569e-016 0
lhumerus -10.3857 -15.8629 89.8937
lradius 84.7121
lwrist -22.5037
lhand -29.9177 17.2749
lfingers 7.12502
lthumb -3.238 47.23
rfemur -78.3803 -10.9946 21.836
rtibia 107.4
rfoot -5.64157 3.14307
rtoes 8.79827
lfemur -77.8789 12.9927 -24.9774
ltibia 103.048
lfoot -6.28013 -10.9506
ltoes -4.92559
593
root 2.58113 9.66954 -5.50021 -17.6253 -4.98764 1.89361
lowerback 29.4987 -0.120679 0.949404
upperback 12.5141 0.135493 1.93833
thorax -2.14698 0.0145535 1.54497
lowerneck -25.2314 -0.87962 -11.0189
upperneck 13.4566 1.85486 3.90434
head 8.12549 0.708293 3.34747
rclavicle 3.97569e-016 7.15625e-015
rhumerus -11.3752 20.0857 -82.6268
rradius 93.6813
rwrist 28.3646
rhand -31.4699 12.7958
rfingers 7.12502
rthumb -4.73689 -17.1312
lclavicle 3.97569e-016 7.15625e-015
lhumerus -10.3475 -15.9106 89.8543
lradius 84.6683
lwrist -22.4859
lhand -29.8665 17.225
lfingers 7.12502
lthumb -3.18851 47.1809
rfemur -78.319 -10.9546 21.9283
rtibia 107.389
rfoot -5.68747 3.17578
rtoes 8.75598
lfemur -77.8679 13.0477 -24.8705
ltibia 103.063
lfoot -6.26825 -10.9755
ltoes -5.0038
594
root 2.58172 9.67113 -5.5005 -17.6667 -4.98009 1.96983
lowerback 29.4419 -0.105226 0.924766
upperback 12.5591 0.144844 1.90852
thorax -2.07071 0.0192892 1.52304
lowerneck -24.9544 -0.773561 -10.7081
upperneck 13.1174 1.91198 3.60519
head 7.96711 0.729175 3.19281
rclavicle -1.23246e-014 1.59028e-015
rhumerus -11.3668 20.0166 -82.6458
rradius 93.6928
rwrist 28.395
rhand -31.4436 12.7869
rfingers 7.12502
rthumb -4.71148 -17.1407
lclavicle -1.23246e-014 1.59028e-015
lhumerus -10.251 -16.0048 89.8156
lradius 84.6348
lwrist -22.3808
lhand -29.9065 17.3034
lfingers 7.12502
lthumb -3.22716 47.2587
rfemur -78.2753 -10.9683 21.8266
rtibia 107.397
rfoot -5.71002 3.21034
rtoes 8.74051
lfemur -77.7813 13.0493 -24.9417
ltibia 103.046
lfoot -6.33449 -10.9772
ltoes -5.20014
595
root 2.582 9.67257 -5.5009 -17.6892 -4.9595 2.07737
lowerback 29.4339 -0.0879927 0.839487
upperback 12.5855 0.142631 1.88781
thorax -2.03757 0.0156945 1.54979
lowerneck -24.7503 -0.572885 -10.0945
upperneck 12.8055 2.06231 2.99431
head 7.83106 0.775691 2.89809
rclavicle -7.55382e-015 1.74931e-014
rhumerus -11.3373 20.0238 -82.6353
rradius 93.7071
rwrist 28.4097
rhand -31.5024 12.8089
rfingers 7.12502
rthumb -4.76823 -17.1175
lclavicle -7.55382e-015 1.74931e-014
lhumerus -10.138 -16.0366 89.762
lradius 84.5935
lwrist -22.3111
lhand -29.9613 17.3015
lfingers 7.12502
lthumb -3.2801 47.256
rfemur -78.2785 -10.9932 21.7019
rtibia 107.418
rfoot -5.69228 3.27012
rtoes 8.78493
lfemur -77.7323 13.0229 -25.0502
ltibia 103.025
lfoot -6.3562 -10.936
ltoes -5.03612
